<svg width="32" height="32" viewBox="0 0 32 32" fill="none" xmlns="http://www.w3.org/2000/svg">
<path fill-rule="evenodd" clip-rule="evenodd" d="M16 15.3333C14.18 15.284 12.716 13.82 12.6667 12C12.716 10.18 14.18 8.716 16 8.66667C17.82 8.716 19.284 10.18 19.3333 12C19.284 13.82 17.82 15.284 16 15.3333ZM16 4C11.5867 4.012 8.012 7.58667 8 12C8.004 12.7073 8.104 13.4113 8.298 14.0913C8.42267 14.542 8.586 14.9807 8.78667 15.4027C8.966 15.7787 16 28 16 28C16 28 23.0067 15.7787 23.186 15.4027C23.3867 14.9807 23.55 14.542 23.6747 14.0913C23.8773 13.4127 23.9867 12.7087 24 12C23.988 7.58667 20.4133 4.012 16 4Z" fill="#D40511"/>
</svg>
